<?xml version="1.0" standalone="no"?>
<!DOCTYPE svg PUBLIC "-//W3C//DTD SVG 20010904//EN"
 "http://www.w3.org/TR/2001/REC-SVG-20010904/DTD/svg10.dtd">
<svg version="1.0" xmlns="http://www.w3.org/2000/svg"
 width="50.000000pt" height="50.000000pt" viewBox="0 0 50.000000 50.000000"
 preserveAspectRatio="xMidYMid meet">

<g transform="translate(0.000000,50.000000) scale(0.100000,-0.100000)"
fill="#000000" stroke="none">
<path d="M205 488 c-133 -30 -200 -185 -131 -303 94 -160 333 -120 374 63 33
143 -99 273 -243 240z m143 -30 c8 -8 12 -53 12 -135 l0 -123 -30 0 -30 0 0
135 c0 123 2 135 18 135 10 0 23 -5 30 -12z m-92 -217 c30 -69 54 -129 54
-133 0 -4 -11 -8 -23 -8 -16 0 -28 9 -35 25 -10 23 -17 25 -72 25 -47 0 -64 4
-80 20 -27 27 -26 36 15 125 32 70 37 76 61 73 24 -3 33 -16 80 -127z"/>
<path d="M151 265 c-12 -26 -21 -51 -21 -56 0 -5 20 -9 45 -9 l45 0 -21 53
c-11 28 -22 53 -24 55 -2 2 -13 -18 -24 -43z"/>
</g>
</svg>
